<?xml version="1.0" encoding="UTF-8"?>
<svg id="Capa_2" data-name="Capa 2" xmlns="http://www.w3.org/2000/svg" viewBox="0 0 76.65 168.39">
  <defs>
    <style>
      .cls-1 {
        fill: #f6b233;
        stroke-width: 0px;
      }
    </style>
  </defs>
  <g id="BACKGROUND">
    <path class="cls-1" d="M75.85,160.54c-.11-1.41-1.52-2.59-2.93-2.44-.35.04-.69.14-1.04.1-.43-.05-.83-.32-1.26-.32-.47,0-.93.33-1.39.2-.24-.06-.43-.24-.62-.39-.82-.65-1.84-.99-2.81-1.42.11-.86-.2-1.75-.74-2.44-.62-.78-1.51-1.31-2.44-1.66-.1-.04-.2-.07-.3-.1-.01-.15-.02-.3,0-.45.04-.38.23-.73.33-1.1.12-.41.13-.84.13-1.27.01-1.01,0-2.02-.04-3.03.49-.42,1.01-.8,1.51-1.2.26-.21.52-.45.6-.77.09-.42-.17-.83-.41-1.19-.28-.43-.55-.87-.8-1.32-.27-.49-.51-.99-.67-1.52-.17-.57-.22-1.17-.25-1.77-.09-2.02.12-4.05.62-6,.18-.7.4-1.4.53-2.11.18-.99.18-1.99.17-2.99.51-.86.61-1.74.55-2.58-.06-.84-.28-1.65-.4-2.48-.27-1.8-.11-3.65-.45-5.45-.21-1.11-.6-2.17-1-3.23-.39-1.04-.77-2.07-1.16-3.11-.26-.71-.53-1.43-.93-2.07-.26-.41-.57-.79-.82-1.21-.4-.67-.63-1.42-.87-2.17-.85-2.72-1.69-5.44-2.54-8.17.3.2.82.6,1.19,1.13.52.75.69,1.68,1,2.55.31.86.86,1.74,1.74,1.99.03-.91,0-1.98-.74-2.54-.15-.12-.33-.2-.47-.34-.43-.41-.38-1.09-.49-1.67-.21-1.17-1.09-2.08-1.72-3.08-.6-.96-.98-2.03-1.39-3.08-1.01-2.58-2.24-5.06-3.67-7.43.3-.81.57-1.56.54-2.33-.04-1.06-.65-2.11-.37-3.13.28.1.58.06.85-.06.48-.22.8-.68,1.09-1.11l.69-1.02c.13-.19.25-.37.33-.58.08-.23.11-.47.12-.71.06-.8.08-1.61.05-2.42.92,1.18,1.76,2.47,2.59,3.76,1.1,1.69,2.2,3.39,3.3,5.08-.21,1.7.09,3.24.82,4.54.45.8,1.08,1.55,1.21,2.46.07.46,0,.93.06,1.39.06.5.28.98.62,1.36-.75.58-1.35,1.22-1.8,1.95-.12.19-.23.39-.26.61-.05.29.03.61.23.83.06.07.13.14.17.22.04.08.05.18.09.25.08.12.25.16.39.14.14-.03.27-.11.39-.19.52-.35,1.03-.72,1.54-1.09.06.23.3.31.48.26.19-.05.33-.18.47-.32.3-.29.59-.58.87-.89.49-.52.98-1.08,1.17-1.77.14-.52.1-1.07.09-1.61-.02-.63,0-1.26.04-1.89.01-.18.03-.36,0-.54-.04-.23-.17-.44-.3-.65-.29-.46-.5-1.1-.76-1.58-1.95-3.73-3.47-7.55-4.76-11.57-1.53-4.76-2.56-9.81-5.37-13.94.1-1.46.31-2.92.56-4.37.12.2.2.43.24.66.06.39,0,.79.06,1.18.08.53.36,1,.66,1.44.06.08.12.17.21.22.09.05.22.04.28-.04.03-.04.04-.09.04-.14.02-.17-.02-.35-.06-.52-.32-1.38-.72-2.73-1.19-4.07.5-2.62,1.08-5.25,1.34-7.91.06-.64.11-1.29-.02-1.92-.52-2.54-3.64-4-3.94-6.58.05-.05.83-.36.83-.36l-.63-1.88-.56-.02c-.22-1.42-.84-2.76-1.68-3.94s-1.87-2.19-2.99-3.09c.43-2.43,1.67-4.59,3.42-6.2.84.03,1.65.04,2.46.05.45,0,.93,0,1.28-.28.18-.14.3-.34.39-.55.1-.23.15-.48.16-.73.02-.4-.08-.82.09-1.19.12-.27.37-.46.53-.71.16-.25.18-.65-.08-.79.27-.35.48-.57.47-.84,0-.17-.09-.32-.15-.48-.06-.16-.11-.34-.03-.49.04-.08.11-.14.19-.19.23-.17.48-.31.68-.52s.33-.5.26-.78c-.05-.18-.17-.32-.29-.46-.34-.39-.69-.78-1.03-1.17-.17-.19-.34-.39-.43-.63-.17-.45,0-.97-.13-1.44,1.35.09,2.8-.25,3.95-1.04,1.15-.79,1.99-2.02,2.31-3.38.02-.1.04-.22,0-.31-.06-.11-.2-.14-.33-.16-2.17-.35-4.36-.54-6.56-.58-1.2-1.72-2.68-3.17-4.44-4.16-1.76-.99-3.82-1.49-5.83-1.24-.46-.3-.92-.35-1.32-.2-.27.1-.5.28-.75.43-.3.17-.62.3-.93.44-1.89.84-3.48,2.32-4.48,4.13-1,1.81-1.42,3.93-1.2,5.98-.49.03-1.04.35-1.18.83-.02.08-.03.16-.08.22-.04.05-.09.09-.15.12-1.21.79-2.34,1.76-3.05,3.02-.66,1.19-.92,2.6-.7,3.94-.48.87-.73,1.8-.76,2.74-.03.93.14,1.87.44,2.76-.62.05-1.28.07-1.74.45-.23.19-.39.46-.54.73-.43.76-.87,1.51-1.3,2.27-.37-.81-.63-1.67-.89-2.52-.12-.4-.24-.8-.39-1.19-.27-.69-.63-1.33-1.07-1.92-.18-.23-.37-.46-.63-.6-.58-1.08-1.81-1.62-2.98-1.79-1.17-.18-2.37-.09-3.52-.39-.71-.18-1.38-.51-2.09-.65-.72-.14-1.54-.05-2.05.47-.27.28-.42.65-.69.91-.45.44-1.17.57-1.51,1.09-.2.31-.24.72-.5.97-.21.2-.52.26-.79.39-.81.41-1.09,1.47-1.83,1.99-.36.25-.81.36-1.21.55-.62.29-1.13.81-1.43,1.42-.08.09-.8.17-.8.17.01-.29,0-.58-.02-.87,0-.06-.02-.13-.06-.16-.04-.04-.1-.04-.16-.03-.22,0-.44.01-.67.02-.2,0-.44.03-.55.19-.08.11-.08.25-.08.39,0,1.18-.01,2.37-.02,3.55-.36.17-.67.3-.98.43-.25.11-.52.22-.68.44-.18.24-.2.57-.21.87-.02.55-.04,1.1-.06,1.66-.03.7-.05,1.41.16,2.08.21.67.71,1.28,1.39,1.44-.16,1.37-.14,2.78,0,4.19-.35.31-.56.5-.78.68-.19.16-.39.34-.44.59-.03.12-.02.24,0,.36.02.19.05.37.11.55.06.17.15.32.2.49.19.6-.08,1.3.2,1.86-.21.2-.44.33-.6.52-.17.19-.27.46-.2.7.03.12.11.23.12.35.02.31-.35.5-.46.8-.13.35.16.73.12,1.11-.02.18-.12.34-.16.52-.1.42.15.9.56,1.05-.58,2.28-.93,4.63-1.05,6.98-.5.25-.99.52-1.46.82-.18.12-.37.25-.47.44-.11.22-.08.47-.05.71.25,2.06.5,4.12.75,6.18.08.62.15,1.26,0,1.86-.15.57-.49,1.07-.7,1.62-.21.55-.25,1.24.14,1.68.34.37.92.49,1.14.94.07.16.09.33.11.5.07.64.13,1.28.2,1.92.05.2,1.52-.74,1.52-.74-.26-2.01-.34-4.04-.21-6.06,1.2,3.74,3.78,6.85,6.34,9.82.32.37.65.75,1.04,1.05.66.5,1.46.77,2.25,1.02.04.01.09.03.13.04-.24.94-.95,1.74-1.23,2.69-.2.66-.19,1.37-.16,2.06.19,5.32.89,10.62.73,15.94l-.44.07-.03,1.87,3.17.05.03-1.94-.3-.03s.47-7.19.12-10.7c-.32-3.25-1.01-6.48-1.07-9.74.78.25,1.56.5,2.33.75.46.15.92.3,1.36.51.4.2.78.44,1.19.62,1.14.48,2.44.34,3.66.15-.06,1.67-.15,3.29-.21,4.91-.02.64-.04,1.28.05,1.92.02.11.04.22.11.3.09.09.24.11.37.11.31.02.62.03.93.05.16,0,.33.02.47.09.11.06.19.15.27.24.47.54.95,1.08,1.43,1.62-.03.7.09,1.51.5,2.15.12.18.26.36.27.57.03.36-.29.63-.51.91-.35.44-.52,1-.57,1.56-.05.56.01,1.12.08,1.68.03,1-.28,2.03-.89,2.83-.27.35-.59.66-.8,1.04-.21.38-.3.88-.07,1.25.14.22.38.39.46.64.11.36-.16.72-.31,1.07-.2.48-.18,1.02-.16,1.54.04,1.3.02,2.61-.08,3.92-.08,1.03-.18,2.13.3,3.04-.53,3.09-3.86,5.04-4.16,8.05-.04.42-.02.85-.13,1.25-.1.38-.3.72-.5,1.06-1.94,3.42-3.11,7.22-4.84,10.74-.97,1.98-2.16,4.06-1.82,6.24-.88.08-1.58.32-2.11.77-.86.71-1.23,1.84-1.48,2.93-.25,1.08-.44,2.22-1.05,3.15-.16.23-.34.46-.41.74-.08.37.07.75.23,1.1.19.43.38.85.57,1.28.13.29.26.58.29.89.03.27-.02.53-.06.8-.28,1.63-.56,3.28-.95,5.01-.69,1.14-1.31,2.37-1.38,3.88-.33.32-.69.7-.7,1.16-.01.52.42.95.85,1.24,1.48,1.03,3.3,1.41,5.05,1.86,2.96.76,5.86,1.78,8.86,2.38,3,.61,6.16.78,9.08-.12.59-.18,1.21-.44,1.54-.96.33-.52.19-1.37-.42-1.39.22-1.38-.85-2.84-2.24-3.03-.34-.05-.7-.03-1.02-.15-.41-.15-.72-.5-1.14-.6-.45-.11-.97.09-1.38-.13-.21-.12-.35-.33-.5-.52-.64-.81-1.53-1.38-2.35-2.01.19-.64.11-1.36-.25-1.92-.16-.25-.36-.46-.55-.67l-.84-.89c.1-1.07.48-2.11,1.11-2.97.12-.17.26-.37.2-.57-.07-.23-.36-.33-.42-.56-.07-.26.2-.48.44-.59,1.06-.5,2.39-.52,3.19-1.38.47-.51.65-1.21.81-1.89.07-.31.15-.62.08-.93-.14-.68-.87-1.03-1.34-1.43.89-.88,1.8-1.79,2.25-2.95.45-1.13.42-2.41.87-3.54.26-.65.67-1.23,1.06-1.81,1.02-1.53,1.94-3.14,2.73-4.8.43-.89.82-1.8,1.37-2.61.37-.54.8-1.04,1.22-1.55,1.54-1.91,3.03-3.95,3.92-6.43.72-2,1.19-4.09,2.03-6.05,1.08-2.54,2.44-5.03,2.97-7.41,1.31,1.69,2.35,3.57,3.38,5.45.32.59.65,1.2.69,1.87.02.38-.06.77-.02,1.15.07.65.46,1.2.71,1.81.51,1.25.4,2.69.97,3.91.27.57.68,1.06.97,1.62.54,1.01.7,2.18.86,3.31-.59.77-.84,1.66-.77,2.53.04.53.2,1.04.29,1.56.15.93.06,1.88.09,2.83.03,1.38.3,2.75.34,4.13.03,1-.06,2.01.08,3.01.05.33.13.69.38.92.12.11.27.18.39.28.21.17.34.42.47.67.25.52.48,1.05.69,1.59-.55.46-.76,1.12-1.19,1.6-.25.28-.57.48-.85.73-.32.28-.6.61-.83.97-.12.19-.22.4-.26.63-.05.33.07.67.22.97.35.71.87,1.31,1.31,1.97.97,1.43,1.54,3.13,1.65,4.86-.16.52-.34,1.04-.5,1.55-.44,1.36-.81,2.8-.5,4.39-.25.4-.51.85-.41,1.31.11.52.64.83,1.13,1.02,1.7.66,3.59.59,5.41.61,3.09.04,6.19.34,9.28.21,3.09-.13,6.24-.71,8.89-2.31.54-.32,1.08-.72,1.28-1.32.2-.59-.14-1.39-.74-1.27ZM2.96,57.39c.05-1.25.19-2.5.41-3.74.16,1.1.41,2.19.76,3.25-.4.15-.79.32-1.18.49ZM4.74,35.02c-.17-.05-.38.08-.51-.03-.06-.05-.08-.12-.1-.19-.16-.64-.16-1.31-.07-1.97.02-.18.06-.36.14-.52.14-.27.44-.46.7-.47-.05,1.06-.11,2.12-.16,3.18ZM30.43,29.76c-.05-.3-.11-.61-.16-.91-.04-.2-.07-.41-.04-.61.05-.3.25-.55.48-.75.46-.38,1.06-.59,1.71-.48-.64.93-1.31,1.85-2,2.75ZM32.7,24.41c-.56-1.14-.63-2.52-.08-3.59.27,1.18.29,2.4.08,3.59ZM40.55,22.85c-.26-.7-.39-1.44-.4-2.18.53.58.81,1.35.84,2.14-.2,0-.31.03-.44.04ZM42.66,20.45c-.06.45-.12.91-.3,1.33-.18.42-.51.8-.95.93-.17-.99-.6-1.93-1.1-2.8-.5-.87-1.07-1.7-1.44-2.62-.28-.69-.45-1.44-.81-2.09-.11-.19-.23-.38-.29-.6-.08-.31,0-.63-.02-.94.3-.06.55-.19.79-.37.13.34.25.68.38,1.02.04.11.09.23.14.34.21.48.56.89,1.04,1.31-.07.41-.14.82-.12,1.23.02.41.14.83.41,1.14.32.37.82.54,1.31.6.19.02.4.03.57.12.23.12.37.38.41.63.05.26.01.52-.02.78ZM62.05,153.13c.22-.22.51-.21.75-.11.24.09.45.26.65.42.43.36.87.72,1.23,1.15.36.44.63.95.7,1.51-1.11-1-2.02-2.24-3.32-2.97Z"/>
  </g>
</svg>