<?xml version="1.0" encoding="UTF-8"?>
<svg id="Capa_2" data-name="Capa 2" xmlns="http://www.w3.org/2000/svg" viewBox="0 0 172.67 171.11">
  <defs>
    <style>
      .cls-1 {
        fill: #f6b233;
        stroke-width: 0px;
      }
    </style>
  </defs>
  <g id="BACKGROUND">
    <g>
      <path class="cls-1" d="M85.03,63.58c0,.38,1.68-.5,1.68-.5,0-2.75.02-5.52.47-8.24.45-2.72,1.35-5.41,3-7.61-.49,1.61-1.04,3.36-1.32,5.18-.59,3.84.05,7.76-.02,11.65,0,.38-.02.78-.18,1.12-.16.36-.45.64-.72.93-.39.43-.74.9-1.04,1.4-.07.12-.15.27-.1.41.03.09.11.17.19.22.48.31,1.11.09,1.63-.14-.65.95-.95,2.17-1.01,3.36-.06,1.19.08,2.38.09,3.57.01,1.68-.24,3.36-.36,5.04-.14,2.11-.06,4.22.03,6.33.17,4.28.34,8.55.52,12.83.12,2.94.24,5.89.58,8.82.29.25,2.49-.81,2.49-.81-1.44-10.89-.14-21.96-.81-32.92,2.37,1.21,4.45,3.08,6.8,4.58,2.34,1.5,5.05,2.64,7.83,2.46.64,1.16.87,2.32.9,3.47.02.77-.06,1.53-.14,2.29-.86,8.44-1.96,16.86-3.3,25.24.2.38,2.91,1.54,2.91,1.54,1.28-10.92,3.4-21.92,1.96-32.82.92-.62,1.68-.89,2.46-1.11-.68,1.49-1.25,2.95-1.4,4.48-.16,1.53.14,3.17,1.13,4.35.19.22.4.44.51.71.12.29.09.62.1.94.05,1.25.74,2.41.79,3.66.05,1.08-.33,2.34.41,3.13.21.22.51.4.59.69.16.54-.46.94-.82,1.37-.56.66-.51,1.75.1,2.36.19.19.42.34.56.57.13.23.15.51.14.78-.1,2.4-1.81,4.61-1.48,6.98.1.74.39,1.44.39,2.19,0,1.07-.59,2.28.09,3.1-1.72,1.67-3.49,3.5-4.1,5.84-.18.68-.25,1.39-.56,2.02-.49.99-1.49,1.65-1.96,2.65-.47,1-.33,2.17-.52,3.26-.14.83-.48,1.62-.81,2.4-.48,1.13-.96,2.25-1.45,3.38-.37.85-.74,1.72-1.27,2.48-.97,1.37-2.54,2.52-2.61,4.2-.06,1.18.98,2.48,1.81,3.37-.88-.34-1.84.37-2.26,1.22-.41.84-.48,1.82-.82,2.69-.61,1.57-2.07,2.74-2.55,4.36-.14.49-.19,1-.37,1.48-.24.64-.68,1.17-1.08,1.73-1.42,1.99-2.22,4.7-1.13,6.9-.44,1.06.55,1.86,1.37,2.18,7.19,2.8,14.81,4.26,22.39,5.71.88.17,2,.23,2.6-.58,1.04-.06,1.76-1.05,2.18-2,.39-.88.65-1.92.26-2.8-.42-.97-1.49-1.5-2.53-1.68-1.04-.18-2.11-.1-3.15-.26-2.14-.34-3.96-1.7-5.68-3.01-.81-.62-1.71-1.44-1.56-2.45.08-.55.47-1.01.57-1.55.13-.72-.26-1.45-.17-2.18.12-1.05,1.13-1.73,1.81-2.54.51-.61.87-1.38.85-2.17-.02-.79-.48-1.6-1.21-1.9.48-1.14.2-1.6.64-2.73,1.03-.14,1.97-.64,2.73-1.3.77-.66,1.39-1.47,1.98-2.29.78-1.08,1.54-2.27,1.59-3.6.04-.97.06-1.86.02-2.76,1.56-1.64,3.02-3.1,4.78-4.12.82-.47,1.7-.85,2.43-1.45,1.09-.89,1.75-2.18,2.33-3.46,2.05-4.49,3.45-9.28,4.15-14.16.09-.02.7,11.51,1.34,23.99-.2.08-.4.19-.57.33-.11.09-.21.18-.28.3-.13.23-.11.53.04.74.15.21.43.32.64.27-.05.6,0,1.21.13,1.8.02.08.04.17.1.23.03.03.08.05.13.06.68,13.54,1.34,26.96,1.34,26.96l1.24-.18-.94-26.92c.12-.04.23-.09.28-.19.04-.07.05-.15.06-.23.05-.52.01-1.05-.06-1.55.25-.05.42-.28.51-.52.05-.15.08-.31.04-.46-.06-.22-.25-.38-.44-.49-.16-.1-.34-.16-.52-.22l-.95-27.26c2.12,3,5.25,5.27,8.76,6.36-.15.62-.3,1.25-.29,1.88.02.64.23,1.29.69,1.73.26.25.59.42.88.65.08.06.16.13.19.23.08.22-.11.43-.22.63-.2.35-.16.8,0,1.17.15.37.42.69.67,1-1.06,1.65-1.49,3.77-1.09,5.72.15.72.4,1.44.36,2.18-.05.92-.55,1.75-.91,2.6-.84,1.96-.95,4.23-.31,6.26.15.47.34.94.65,1.31.31.38.77.66,1.26.68-.01.04.16,1.52.16,1.52-.93-.11-1.69.83-1.87,1.75-.18.92,0,1.88-.11,2.81-.19,1.68-1.3,3.17-1.35,4.86-.01.51.07,1.02.02,1.52-.07.68-.36,1.31-.6,1.95-.86,2.29-.94,6.54.67,8.39-.15,1.14,1.01,1.66,1.89,1.76,7.66.87,15.41.34,23.11-.2.89-.06,1.99-.29,2.37-1.22.99-.33,1.43-2.89,1.6-3.92.15-.95.14-2.02-.46-2.78-.65-.83-1.82-1.06-2.88-.97-.49.04-.97.14-1.46.25l2.07-29.31.38.03.25-2.01c.19-.08.4-.15.53-.32.14-.17.17-.42.1-.64-.07-.21-.21-.4-.39-.54-.18-.15-.38-.26-.61-.34l2.07-29.28c.07,0,.13-.01.2-.03.13-.04.25-.12.31-.24.07-.15.02-.34-.06-.48-.09-.16-.21-.29-.36-.4l.83-11.79.28.03c.31-3.13.55-6.26.72-9.4.09-.03.18-.06.27-.1.82-.35,1.53-1.11,1.6-2,.35-.21.56-.67.59-1.06s-.02-.82.2-1.15c.13-.19.33-.31.43-.51.34-.64-.51-1.39-.3-2.08.05-.17.16-.31.23-.47.24-.58-.12-1.26-.65-1.6-.53-.34-1.18-.41-1.8-.47-.08,0-.16-.02-.24-.02l.08-1.19c.14-.15.33-.27.52-.34.36-.13.76-.14,1.14-.18.11-.01.23-.05.26-.15.01-.05,0-.1-.02-.15-.1-.21-.35-.32-.57-.39-1.49-.49-3.14-.51-4.64-.05-.15.05-.33.13-.35.29-.02.22.27.32.49.34.35.03.71.07,1.01.26.06.04.11.08.16.13l-.07,1.23c-.07,0-.14-.01-.21-.02-.36-.13-.75-.2-1.12-.07-.3.11-.53.34-.76.56-.71.71-1.43,1.44-1.81,2.37-.28-.36-.54-.63-.88-.71-.16-.04-.33-.03-.5-.04-.52-.04-1-.27-1.47-.5-1.47-.7-2.96-1.32-4.49-1.88-.36-.13-.74-.26-1.11-.17-.14.03-.27.09-.4.12-.48.09-.92-.26-1.3-.57-1.28-1.06-2.7-1.96-4.2-2.67-.2-.51-.3-1.04-.7-1.12-.11-.02-.22,0-.32-.03-.31-.08-.4-.47-.38-.79.03-.44.16-.87.39-1.24.14-.23.31-.44.38-.7.06-.21.05-.43.04-.65-.02-.44-.05-.87-.07-1.31-.05-.9-.1-1.81-.34-2.68-.31-1.12-.92-2.12-1.35-3.2-.44-1.11-.69-2.28-.94-3.44-.22-.62.18-1.09.16-1.57-.01-.29-.18-.56-.29-.83-.19-.48-.22-1-.26-1.51-.06-.76-.15-1.52-.4-2.24-.25-.72-.67-1.4-1.29-1.84-.07-.66-.1-1.22-.19-1.78.38.01.72.05,1.06.1.13.02.27.03.4,0,.13-.03.26-.12.29-.25.06-.19-.08-.37-.21-.51-.12-.14-.25-.28-.37-.42-.23-.27-.48-.57-.47-.92,0-.59.7-.98.76-1.57.04-.42-.26-.8-.54-1.11-.74-.8-1.52-1.56-2.35-2.26.4-.07.78-.09,1.15-.16.21-.03.42-.08.6-.18.36-.18.62-.52.82-.88.26-.47.44-.98.53-1.51.05-.3.08-.62.29-.84.18-.18.46-.26.56-.48.08-.17.03-.38,0-.57-.02-.19,0-.42.16-.52.06-.04.14-.06.21-.09.29-.13.39-.5.39-.82,0-.32-.08-.65.02-.95.23-.15.46-.21.65-.32.2-.11.37-.29.41-.52.03-.15,0-.3-.02-.44-.1-.54-.24-1.07-.41-1.59-.08-.26-.18-.53-.11-.79.09-.36.47-.61.52-.98,1.42,1.18,3.48,1.63,5.18.98.74-.28,1.49-.92,1.4-1.71-.09-.74-.84-1.19-1.51-1.53-1.33-.7-2.61-1.48-3.83-2.34-.41-1.89-.87-3.7-1.48-5.46-.44-1.27-.99-2.57-2.04-3.41-1.5-1.21-3.62-1.18-5.54-1.09-.13-.43-.53-.74-.95-.73-.42,0-.81.33-.9.74-1.73-.06-3.48.57-4.83,1.68-.89.73-1.6,1.65-2.31,2.56-.62.8-1.25,1.62-1.64,2.56-.39.94-.5,2.03-.09,2.96-.56.79-.93,1.42-.92,2.11,0,.31.09.61.13.91.11.75,0,1.51.12,2.26.19,1.24,1,2.37.93,3.62-.32-.11-.68-.3-1.06-.46-.4-.17-.86-.31-1.24-.11-.41.23-.54.77-.89,1.08-.26.23-.61.32-.91.49-.41.23-.73.62-.87,1.08-.75-.13-1.55-.15-2.34-.06-.17-.88-.79-1.65-1.61-2.01-.22-.1-.46-.17-.7-.12-.36.08-.61.41-.81.72-.58.89-1.11,1.82-1.58,2.77-.16-2.03-.48-4.06-1.56-5.71-1.29-1.97-3.58-3.16-5.91-3.5-2.34-.33-4.73.11-6.96.87-2.54.87-4.94,2.14-7.07,3.77-.55.42-1.09.87-1.51,1.41-1.03,1.34-1.27,3.18-.89,4.83.38,1.65,1.31,3.13,2.41,4.41-.92.5-1.82,1.58-2.46,2.72-.18.32-.38.68-.73.8-.15.05-.32.04-.47.08-.57.14-.81.83-.8,1.41,0,.21.03.44-.05.64-.13.31-.48.45-.76.64-.61.42-.94,1.19-.89,1.93.05.74.43,1.43.98,1.93-2.22,1.77-3.12,4.8-3.79,7.65-1.3,5.56-2.17,11.22-2.6,16.92ZM145.59,42.34c-.49-.83-.76-1.79-.76-2.75,0-.05,0-.11.04-.14.08-.08.21.02.27.11.25.4.38.88.42,1.35.05.47.02.95.03,1.43ZM142.35,82.02c1.2-.59,2.23-1.56,2.85-2.72.63-1.16.87-2.5.86-3.82,0-.53-.05-1.07-.27-1.55-.18-.4-.47-.74-.76-1.07-.74-.84-1.49-1.67-2.26-2.49,2.92,1.33,5.31,3.56,7.65,5.75.27-.07.98-2.57.98-2.57-1.02-1.06-2.12-2.04-3.28-2.93,2.26.33,4.26,1.52,6.44,2.07,1.58.4,3.22.45,4.85.4.83-.03,1.73-.1,2.37-.64.44-.36.77-.94,1.34-1,.25-.03.5.06.74.14.96.32,1.96.54,2.97.64l-.42,9.03.33.03-.69,11.71c-.17.08-.33.18-.45.33-.12.14-.21.33-.13.5.03.05.07.09.11.13.12.1.25.18.39.24l-1.73,29.48c-.19.06-.37.15-.53.28-.26.2-.47.49-.49.82-.02.33.18.67.51.69l-.02,1.9.32.03-1.74,29.6c-.25.05-.5.09-.75.11-2.16.21-4.26-.63-6.26-1.45-.94-.39-2.03-.96-2.14-1.97-.06-.55.2-1.09.16-1.64-.05-.73-.62-1.34-.73-2.06-.16-1.05.65-1.96,1.1-2.91.34-.72.49-1.55.27-2.31-.22-.76-.96-1.5-1.75-1.6,1.15.15,2.44-.05,3.32-.8.14-.12.26-.26.35-.42.42-.75.15-1.69-.24-2.45-.39-.76-.91-1.5-.99-2.35-.08-.85.29-1.67.47-2.51.2-.94.15-1.92.45-2.83.24-.76.71-1.43,1.2-2.05.45-.57.95-1.13,1.17-1.83.11-.35.14-.72.17-1.08.24-2.79.38-5.6.41-8.4.02-1.63,0-3.39-.29-5.12-.29-1.73-.87-3.43-1.92-4.84-.81-1.08-1.89-2-2.37-3.27-.39-1.03-.36-2.27-1.12-3.07-.22-.23-.5-.41-.72-.64-.51-.54-.68-1.3-.89-2.01-.6-2.06-1.63-3.96-2.65-5.84-.07-.36.03-.57.21-.55.19.01.25.27.4.38.25.2.65-.1.65-.42,0-.32-.22-.6-.44-.83-.68-.73-1.43-1.4-2.01-2.21-.68-.95-1.13-2.1-2-2.88-.45-.4-1-.7-1.4-1.16-.41-.48-.63-1.09-.83-1.69-.25-.75-.51-1.5-.77-2.26ZM138.39,73.92c.03-.42.06-.85.25-1.22.19-.37.58-.68,1-.63.33.04.6.28.85.51,1.44,1.34,2.88,2.69,4.1,4.23.1.13.21.27.23.44.04.38-.35.64-.7.79-1.08.47-2.23.79-3.23,1.2-.31-1.51-1.03-2.94-2.08-4.08-.12-.14-.26-.27-.33-.44-.11-.24-.1-.53-.08-.8ZM119.39,22.02c.09-.34.21-.67.35-.99.1-.22.21-.45.39-.61.18-.16.44-.26.67-.17.2.07.34.27.44.46.14.27.23.57.28.84-.73.03-1.43.26-2.13.48Z"/>
      <path class="cls-1" d="M75.85,161.04c-.11-1.41-1.52-2.59-2.93-2.44-.35.04-.69.14-1.04.1-.43-.05-.83-.32-1.26-.32-.47,0-.93.33-1.39.2-.24-.06-.43-.24-.62-.39-.82-.65-1.84-.99-2.81-1.42.11-.86-.2-1.75-.74-2.44-.62-.78-1.51-1.31-2.44-1.66-.1-.04-.2-.07-.3-.1-.01-.15-.02-.3,0-.45.04-.38.23-.73.33-1.1.12-.41.13-.84.13-1.27.01-1.01,0-2.02-.04-3.03.49-.42,1.01-.8,1.51-1.2.26-.21.52-.45.6-.77.09-.42-.17-.83-.41-1.19-.28-.43-.55-.87-.8-1.32-.27-.49-.51-.99-.67-1.52-.17-.57-.22-1.17-.25-1.77-.09-2.02.12-4.05.62-6,.18-.7.4-1.4.53-2.11.18-.99.18-1.99.17-2.99.51-.86.61-1.74.55-2.58-.06-.84-.28-1.65-.4-2.48-.27-1.8-.11-3.65-.45-5.45-.21-1.11-.6-2.17-1-3.23-.39-1.04-.77-2.07-1.16-3.11-.26-.71-.53-1.43-.93-2.07-.26-.41-.57-.79-.82-1.21-.4-.67-.63-1.42-.87-2.17-.85-2.72-1.69-5.44-2.54-8.17.3.2.82.6,1.19,1.13.52.75.69,1.68,1,2.55.31.86.86,1.74,1.74,1.99.03-.91,0-1.98-.74-2.54-.15-.12-.33-.2-.47-.34-.43-.41-.38-1.09-.49-1.67-.21-1.17-1.09-2.08-1.72-3.08-.6-.96-.98-2.03-1.39-3.08-1.01-2.58-2.24-5.06-3.67-7.43.3-.81.57-1.56.54-2.33-.04-1.06-.65-2.11-.37-3.13.28.1.58.06.85-.06.48-.22.8-.68,1.09-1.11l.69-1.02c.13-.19.25-.37.33-.58.08-.23.11-.47.12-.71.06-.8.08-1.61.05-2.42.92,1.18,1.76,2.47,2.59,3.76,1.1,1.69,2.2,3.39,3.3,5.08-.21,1.7.09,3.24.82,4.54.45.8,1.08,1.55,1.21,2.46.07.46,0,.93.06,1.39.06.5.28.98.62,1.36-.75.58-1.35,1.22-1.8,1.95-.12.19-.23.39-.26.61-.05.29.03.61.23.83.06.07.13.14.17.22.04.08.05.18.09.25.08.12.25.16.39.14.14-.03.27-.11.39-.19.52-.35,1.03-.72,1.54-1.09.06.23.3.31.48.26.19-.05.33-.18.47-.32.3-.29.59-.58.87-.89.49-.52.98-1.08,1.17-1.77.14-.52.1-1.07.09-1.61-.02-.63,0-1.26.04-1.89.01-.18.03-.36,0-.54-.04-.23-.17-.44-.3-.65-.29-.46-.5-1.1-.76-1.58-1.95-3.73-3.47-7.55-4.76-11.57-1.53-4.76-2.56-9.81-5.37-13.94.1-1.46.31-2.92.56-4.37.12.2.2.43.24.66.06.39,0,.79.06,1.18.08.53.36,1,.66,1.44.06.08.12.17.21.22.09.05.22.04.28-.04.03-.04.04-.09.04-.14.02-.17-.02-.35-.06-.52-.32-1.38-.72-2.73-1.19-4.07.5-2.62,1.08-5.25,1.34-7.91.06-.64.11-1.29-.02-1.92-.52-2.54-3.64-4-3.94-6.58.05-.05.83-.36.83-.36l-.63-1.88-.56-.02c-.22-1.42-.84-2.76-1.68-3.94s-1.87-2.19-2.99-3.09c.43-2.43,1.67-4.59,3.42-6.2.84.03,1.65.04,2.46.05.45,0,.93,0,1.28-.28.18-.14.3-.34.39-.55.1-.23.15-.48.16-.73.02-.4-.08-.82.09-1.19.12-.27.37-.46.53-.71.16-.25.18-.65-.08-.79.27-.35.48-.57.47-.84,0-.17-.09-.32-.15-.48-.06-.16-.11-.34-.03-.49.04-.08.11-.14.19-.19.23-.17.48-.31.68-.52s.33-.5.26-.78c-.05-.18-.17-.32-.29-.46-.34-.39-.69-.78-1.03-1.17-.17-.19-.34-.39-.43-.63-.17-.45,0-.97-.13-1.44,1.35.09,2.8-.25,3.95-1.04s1.99-2.02,2.31-3.38c.02-.1.04-.22,0-.31-.06-.11-.2-.14-.33-.16-2.17-.35-4.36-.54-6.56-.58-1.2-1.72-2.68-3.17-4.44-4.16-1.76-.99-3.82-1.49-5.83-1.24-.46-.3-.92-.35-1.32-.2-.27.1-.5.28-.75.43-.3.17-.62.3-.93.44-1.89.84-3.48,2.32-4.48,4.13-1,1.81-1.42,3.93-1.2,5.98-.49.03-1.04.35-1.18.83-.02.08-.03.16-.08.22-.04.05-.09.09-.15.12-1.21.79-2.34,1.76-3.05,3.02-.66,1.19-.92,2.6-.7,3.94-.48.87-.73,1.8-.76,2.74-.03.93.14,1.87.44,2.76-.62.05-1.28.07-1.74.45-.23.19-.39.46-.54.73-.43.76-.87,1.51-1.3,2.27-.37-.81-.63-1.67-.89-2.52-.12-.4-.24-.8-.39-1.19-.27-.69-.63-1.33-1.07-1.92-.18-.23-.37-.46-.63-.6-.58-1.08-1.81-1.62-2.98-1.79-1.17-.18-2.37-.09-3.52-.39-.71-.18-1.38-.51-2.09-.65-.72-.14-1.54-.05-2.05.47-.27.28-.42.65-.69.91-.45.44-1.17.57-1.51,1.09-.2.31-.24.72-.5.97-.21.2-.52.26-.79.39-.81.41-1.09,1.47-1.83,1.99-.36.25-.81.36-1.21.55-.62.29-1.13.81-1.43,1.42-.08.09-.8.17-.8.17.01-.29,0-.58-.02-.87,0-.06-.02-.13-.06-.16-.04-.04-.1-.04-.16-.03-.22,0-.44.01-.67.02-.2,0-.44.03-.55.19-.08.11-.08.25-.08.39,0,1.18-.01,2.37-.02,3.55-.36.17-.67.3-.98.43-.25.11-.52.22-.68.44-.18.24-.2.57-.21.87-.02.55-.04,1.1-.06,1.66-.03.7-.05,1.41.16,2.08.21.67.71,1.28,1.39,1.44-.16,1.37-.14,2.78,0,4.19-.35.31-.56.5-.78.68-.19.16-.39.34-.44.59-.03.12-.02.24,0,.36.02.19.05.37.11.55.06.17.15.32.2.49.19.6-.08,1.3.2,1.86-.21.2-.44.33-.6.52-.17.19-.27.46-.2.7.03.12.11.23.12.35.02.31-.35.5-.46.8-.13.35.16.73.12,1.11-.02.18-.12.34-.16.52-.1.42.15.9.56,1.05-.58,2.28-.93,4.63-1.05,6.98-.5.25-.99.52-1.46.82-.18.12-.37.25-.47.44-.11.22-.08.47-.05.71.25,2.06.5,4.12.75,6.18.08.62.15,1.26,0,1.86-.15.57-.49,1.07-.7,1.62-.21.55-.25,1.24.14,1.68.34.37.92.49,1.14.94.07.16.09.33.11.5.07.64.13,1.28.2,1.92.05.2,1.52-.74,1.52-.74-.26-2.01-.34-4.04-.21-6.06,1.2,3.74,3.78,6.85,6.34,9.82.32.37.65.75,1.04,1.05.66.5,1.46.77,2.25,1.02.04.01.09.03.13.04-.24.94-.95,1.74-1.23,2.69-.2.66-.19,1.37-.16,2.06.19,5.32.89,10.62.73,15.94l-.44.07-.03,1.87,3.17.05.03-1.94-.3-.03s.47-7.19.12-10.7c-.32-3.25-1.01-6.48-1.07-9.74.78.25,1.56.5,2.33.75.46.15.92.3,1.36.51.4.2.78.44,1.19.62,1.14.48,2.44.34,3.66.15-.06,1.67-.15,3.29-.21,4.91-.02.64-.04,1.28.05,1.92.02.11.04.22.11.3.09.09.24.11.37.11.31.02.62.03.93.05.16,0,.33.02.47.09.11.06.19.15.27.24.47.54.95,1.08,1.43,1.62-.03.7.09,1.51.5,2.15.12.18.26.36.27.57.03.36-.29.63-.51.91-.35.44-.52,1-.57,1.56-.05.56.01,1.12.08,1.68.03,1-.28,2.03-.89,2.83-.27.35-.59.66-.8,1.04-.21.38-.3.88-.07,1.25.14.22.38.39.46.64.11.36-.16.72-.31,1.07-.2.48-.18,1.02-.16,1.54.04,1.3.02,2.61-.08,3.92-.08,1.03-.18,2.13.3,3.04-.53,3.09-3.86,5.04-4.16,8.05-.04.42-.02.85-.13,1.25-.1.38-.3.72-.5,1.06-1.94,3.42-3.11,7.22-4.84,10.74-.97,1.98-2.16,4.06-1.82,6.24-.88.08-1.58.32-2.11.77-.86.71-1.23,1.84-1.48,2.93-.25,1.08-.44,2.22-1.05,3.15-.16.23-.34.46-.41.74-.08.37.07.75.23,1.1.19.43.38.85.57,1.28.13.29.26.58.29.89.03.27-.02.53-.06.8-.28,1.63-.56,3.28-.95,5.01-.69,1.14-1.31,2.37-1.38,3.88-.33.32-.69.7-.7,1.16-.01.52.42.95.85,1.24,1.48,1.03,3.3,1.41,5.05,1.86,2.96.76,5.86,1.78,8.86,2.38,3,.61,6.16.78,9.08-.12.59-.18,1.21-.44,1.54-.96.33-.52.19-1.37-.42-1.39.22-1.38-.85-2.84-2.24-3.03-.34-.05-.7-.03-1.02-.15-.41-.15-.72-.5-1.14-.6-.45-.11-.97.09-1.38-.13-.21-.12-.35-.33-.5-.52-.64-.81-1.53-1.38-2.35-2.01.19-.64.11-1.36-.25-1.92-.16-.25-.36-.46-.55-.67l-.84-.89c.1-1.07.48-2.11,1.11-2.97.12-.17.26-.37.2-.57-.07-.23-.36-.33-.42-.56-.07-.26.2-.48.44-.59,1.06-.5,2.39-.52,3.19-1.38.47-.51.65-1.21.81-1.89.07-.31.15-.62.08-.93-.14-.68-.87-1.03-1.34-1.43.89-.88,1.8-1.79,2.25-2.95.45-1.13.42-2.41.87-3.54.26-.65.67-1.23,1.06-1.81,1.02-1.53,1.94-3.14,2.73-4.8.43-.89.82-1.8,1.37-2.61.37-.54.8-1.04,1.22-1.55,1.54-1.91,3.03-3.95,3.92-6.43.72-2,1.19-4.09,2.03-6.05,1.08-2.54,2.44-5.03,2.97-7.41,1.31,1.69,2.35,3.57,3.38,5.45.32.59.65,1.2.69,1.87.02.38-.06.77-.02,1.15.07.65.46,1.2.71,1.81.51,1.25.4,2.69.97,3.91.27.57.68,1.06.97,1.62.54,1.01.7,2.18.86,3.31-.59.77-.84,1.66-.77,2.53.04.53.2,1.04.29,1.56.15.93.06,1.88.09,2.83.03,1.38.3,2.75.34,4.13.03,1-.06,2.01.08,3.01.05.33.13.69.38.92.12.11.27.18.39.28.21.17.34.42.47.67.25.52.48,1.05.69,1.59-.55.46-.76,1.12-1.19,1.6-.25.28-.57.48-.85.73-.32.28-.6.61-.83.97-.12.19-.22.4-.26.63-.05.33.07.67.22.97.35.71.87,1.31,1.31,1.97.97,1.43,1.54,3.13,1.65,4.86-.16.52-.34,1.04-.5,1.55-.44,1.36-.81,2.8-.5,4.39-.25.4-.51.85-.41,1.31.11.52.64.83,1.13,1.02,1.7.66,3.59.59,5.41.61,3.09.04,6.19.34,9.28.21,3.09-.13,6.24-.71,8.89-2.31.54-.32,1.08-.72,1.28-1.32.2-.59-.14-1.39-.74-1.27ZM2.96,57.88c.05-1.25.19-2.5.41-3.74.16,1.1.41,2.19.76,3.25-.4.15-.79.32-1.18.49ZM4.74,35.51c-.17-.05-.38.08-.51-.03-.06-.05-.08-.12-.1-.19-.16-.64-.16-1.31-.07-1.97.02-.18.06-.36.14-.52.14-.27.44-.46.7-.47-.05,1.06-.11,2.12-.16,3.18ZM30.43,30.25c-.05-.3-.11-.61-.16-.91-.04-.2-.07-.41-.04-.61.05-.3.25-.55.48-.75.46-.38,1.06-.59,1.71-.48-.64.93-1.31,1.85-2,2.75ZM32.7,24.9c-.56-1.14-.63-2.52-.08-3.59.27,1.18.29,2.4.08,3.59ZM40.55,23.34c-.26-.7-.39-1.44-.4-2.18.53.58.81,1.35.84,2.14-.2,0-.31.03-.44.04ZM42.66,20.94c-.06.45-.12.91-.3,1.33-.18.42-.51.8-.95.93-.17-.99-.6-1.93-1.1-2.8-.5-.87-1.07-1.7-1.44-2.62-.28-.69-.45-1.44-.81-2.09-.11-.19-.23-.38-.29-.6-.08-.31,0-.63-.02-.94.3-.06.55-.19.79-.37.13.34.25.68.38,1.02.04.11.09.23.14.34.21.48.56.89,1.04,1.31-.07.41-.14.82-.12,1.23.02.41.14.83.41,1.14.32.37.82.54,1.31.6.19.02.4.03.57.12.23.12.37.38.41.63.05.26.01.52-.02.78ZM62.05,153.62c.22-.22.51-.21.75-.11.24.09.45.26.65.42.43.36.87.72,1.23,1.15.36.44.63.95.7,1.51-1.11-1-2.02-2.24-3.32-2.97Z"/>
    </g>
  </g>
</svg>