<?xml version="1.0" encoding="UTF-8"?>
<svg id="Capa_2" data-name="Capa 2" xmlns="http://www.w3.org/2000/svg" viewBox="0 0 87.64 171.11">
  <defs>
    <style>
      .cls-1 {
        fill: #f6b233;
        stroke-width: 0px;
      }
    </style>
  </defs>
  <g id="BACKGROUND">
    <path class="cls-1" d="M0,63.58c0,.38,1.68-.5,1.68-.5,0-2.75.02-5.52.47-8.24.45-2.72,1.35-5.41,3-7.61-.49,1.61-1.04,3.36-1.32,5.18-.59,3.84.05,7.76-.02,11.65,0,.38-.02.78-.18,1.12-.16.36-.45.64-.72.93-.39.43-.74.9-1.04,1.4-.07.12-.15.27-.1.41.03.09.11.17.19.22.48.31,1.11.09,1.63-.14-.65.95-.95,2.17-1.01,3.36-.06,1.19.08,2.38.09,3.57.01,1.68-.24,3.36-.36,5.04-.14,2.11-.06,4.22.03,6.33.17,4.28.34,8.55.52,12.83.12,2.94.24,5.89.58,8.82.29.25,2.49-.81,2.49-.81-1.44-10.89-.14-21.96-.81-32.92,2.37,1.21,4.45,3.08,6.8,4.58,2.34,1.5,5.05,2.64,7.83,2.46.64,1.16.87,2.32.9,3.47.02.77-.06,1.53-.14,2.29-.86,8.44-1.96,16.86-3.3,25.24.2.38,2.91,1.54,2.91,1.54,1.28-10.92,3.4-21.92,1.96-32.82.92-.62,1.68-.89,2.46-1.11-.68,1.49-1.25,2.95-1.4,4.48-.16,1.53.14,3.17,1.13,4.35.19.22.4.44.51.71.12.29.09.62.1.94.05,1.25.74,2.41.79,3.66.05,1.08-.33,2.34.41,3.13.21.22.51.4.59.69.16.54-.46.94-.82,1.37-.56.66-.51,1.75.1,2.36.19.19.42.34.56.57.13.23.15.51.14.78-.1,2.4-1.81,4.61-1.48,6.98.1.74.39,1.44.39,2.19,0,1.07-.59,2.28.09,3.1-1.72,1.67-3.49,3.5-4.1,5.84-.18.68-.25,1.39-.56,2.02-.49.99-1.49,1.65-1.96,2.65-.47,1-.33,2.17-.52,3.26-.14.83-.48,1.62-.81,2.4-.48,1.13-.96,2.25-1.45,3.38-.37.85-.74,1.72-1.27,2.48-.97,1.37-2.54,2.52-2.61,4.2-.06,1.18.98,2.48,1.81,3.37-.88-.34-1.84.37-2.26,1.22-.41.84-.48,1.82-.82,2.69-.61,1.57-2.07,2.74-2.55,4.36-.14.49-.19,1-.37,1.48-.24.64-.68,1.17-1.08,1.73-1.42,1.99-2.22,4.7-1.13,6.9-.44,1.06.55,1.86,1.37,2.18,7.19,2.8,14.81,4.26,22.39,5.71.88.17,2,.23,2.6-.58,1.04-.06,1.76-1.05,2.18-2,.39-.88.65-1.92.26-2.8-.42-.97-1.49-1.5-2.53-1.68-1.04-.18-2.11-.1-3.15-.26-2.14-.34-3.96-1.7-5.68-3.01-.81-.62-1.71-1.44-1.56-2.45.08-.55.47-1.01.57-1.55.13-.72-.26-1.45-.17-2.18.12-1.05,1.13-1.73,1.81-2.54.51-.61.87-1.38.85-2.17-.02-.79-.48-1.6-1.21-1.9.48-1.14.2-1.6.64-2.73,1.03-.14,1.97-.64,2.73-1.3.77-.66,1.39-1.47,1.98-2.29.78-1.08,1.54-2.27,1.59-3.6.04-.97.06-1.86.02-2.76,1.56-1.64,3.02-3.1,4.78-4.12.82-.47,1.7-.85,2.43-1.45,1.09-.89,1.75-2.18,2.33-3.46,2.05-4.49,3.45-9.28,4.15-14.16.09-.02.7,11.51,1.34,23.99-.2.08-.4.19-.57.33-.11.09-.21.18-.28.3-.13.23-.11.53.04.74.15.21.43.32.64.27-.05.6,0,1.21.13,1.8.02.08.04.17.1.23.03.03.08.05.13.06.68,13.54,1.34,26.96,1.34,26.96l1.24-.18-.94-26.92c.12-.04.23-.09.28-.19.04-.07.05-.15.06-.23.05-.52.01-1.05-.06-1.55.25-.05.42-.28.51-.52.05-.15.08-.31.04-.46-.06-.22-.25-.38-.44-.49-.16-.1-.34-.16-.52-.22l-.95-27.26c2.12,3,5.25,5.27,8.76,6.36-.15.62-.3,1.25-.29,1.88.02.64.23,1.29.69,1.73.26.25.59.42.88.65.08.06.16.13.19.23.08.22-.11.43-.22.63-.2.35-.16.8,0,1.17.15.37.42.69.67,1-1.06,1.65-1.49,3.77-1.09,5.72.15.72.4,1.44.36,2.18-.05.92-.55,1.75-.91,2.6-.84,1.96-.95,4.23-.31,6.26.15.47.34.94.65,1.31.31.38.77.66,1.26.68-.01.04.16,1.52.16,1.52-.93-.11-1.69.83-1.87,1.75-.18.92,0,1.88-.11,2.81-.19,1.68-1.3,3.17-1.35,4.86-.01.51.07,1.02.02,1.52-.07.68-.36,1.31-.6,1.95-.86,2.29-.94,6.54.67,8.39-.15,1.14,1.01,1.66,1.89,1.76,7.66.87,15.41.34,23.11-.2.89-.06,1.99-.29,2.37-1.22.99-.33,1.43-2.89,1.6-3.92.15-.95.14-2.02-.46-2.78-.65-.83-1.82-1.06-2.88-.97-.49.04-.97.14-1.46.25l2.07-29.31.38.03.25-2.01c.19-.08.4-.15.53-.32.14-.17.17-.42.1-.64-.07-.21-.21-.4-.39-.54-.18-.15-.38-.26-.61-.34l2.07-29.28c.07,0,.13-.01.2-.03.13-.04.25-.12.31-.24.07-.15.02-.34-.06-.48-.09-.16-.21-.29-.36-.4l.83-11.79.28.03c.31-3.13.55-6.26.72-9.4.09-.03.18-.06.27-.1.82-.35,1.53-1.11,1.6-2,.35-.21.56-.67.59-1.06s-.02-.82.2-1.15c.13-.19.33-.31.43-.51.34-.64-.51-1.39-.3-2.08.05-.17.16-.31.23-.47.24-.58-.12-1.26-.65-1.6-.53-.34-1.18-.41-1.8-.47-.08,0-.16-.02-.24-.02l.08-1.19c.14-.15.33-.27.52-.34.36-.13.76-.14,1.14-.18.11-.01.23-.05.26-.15.01-.05,0-.1-.02-.15-.1-.21-.35-.32-.57-.39-1.49-.49-3.14-.51-4.64-.05-.15.05-.33.13-.35.29-.02.22.27.32.49.34.35.03.71.07,1.01.26.06.04.11.08.16.13l-.07,1.23c-.07,0-.14-.01-.21-.02-.36-.13-.75-.2-1.12-.07-.3.11-.53.34-.76.56-.71.71-1.43,1.44-1.81,2.37-.28-.36-.54-.63-.88-.71-.16-.04-.33-.03-.5-.04-.52-.04-1-.27-1.47-.5-1.47-.7-2.96-1.32-4.49-1.88-.36-.13-.74-.26-1.11-.17-.14.03-.27.09-.4.12-.48.09-.92-.26-1.3-.57-1.28-1.06-2.7-1.96-4.2-2.67-.2-.51-.3-1.04-.7-1.12-.11-.02-.22,0-.32-.03-.31-.08-.4-.47-.38-.79.03-.44.16-.87.39-1.24.14-.23.31-.44.38-.7.06-.21.05-.43.04-.65-.02-.44-.05-.87-.07-1.31-.05-.9-.1-1.81-.34-2.68-.31-1.12-.92-2.12-1.35-3.2-.44-1.11-.69-2.28-.94-3.44-.22-.62.18-1.09.16-1.57-.01-.29-.18-.56-.29-.83-.19-.48-.22-1-.26-1.51-.06-.76-.15-1.52-.4-2.24-.25-.72-.67-1.4-1.29-1.84-.07-.66-.1-1.22-.19-1.78.38.01.72.05,1.06.1.13.02.27.03.4,0,.13-.03.26-.12.29-.25.06-.19-.08-.37-.21-.51-.12-.14-.25-.28-.37-.42-.23-.27-.48-.57-.47-.92,0-.59.7-.98.76-1.57.04-.42-.26-.8-.54-1.11-.74-.8-1.52-1.56-2.35-2.26.4-.07.78-.09,1.15-.16.21-.03.42-.08.6-.18.36-.18.62-.52.82-.88.26-.47.44-.98.53-1.51.05-.3.08-.62.29-.84.18-.18.46-.26.56-.48.08-.17.03-.38,0-.57-.02-.19,0-.42.16-.52.06-.04.14-.06.21-.09.29-.13.39-.5.39-.82,0-.32-.08-.65.02-.95.23-.15.46-.21.65-.32.2-.11.37-.29.41-.52.03-.15,0-.3-.02-.44-.1-.54-.24-1.07-.41-1.59-.08-.26-.18-.53-.11-.79.09-.36.47-.61.52-.98,1.42,1.18,3.48,1.63,5.18.98.74-.28,1.49-.92,1.4-1.71-.09-.74-.84-1.19-1.51-1.53-1.33-.7-2.61-1.48-3.83-2.34-.41-1.89-.87-3.7-1.48-5.46-.44-1.27-.99-2.57-2.04-3.41-1.5-1.21-3.62-1.18-5.54-1.09-.13-.43-.53-.74-.95-.73-.42,0-.81.33-.9.74-1.73-.06-3.48.57-4.83,1.68-.89.73-1.6,1.65-2.31,2.56-.62.8-1.25,1.62-1.64,2.56-.39.94-.5,2.03-.09,2.96-.56.79-.93,1.42-.92,2.11,0,.31.09.61.13.91.11.75,0,1.51.12,2.26.19,1.24,1,2.37.93,3.62-.32-.11-.68-.3-1.06-.46-.4-.17-.86-.31-1.24-.11-.41.23-.54.77-.89,1.08-.26.23-.61.32-.91.49-.41.23-.73.62-.87,1.08-.75-.13-1.55-.15-2.34-.06-.17-.88-.79-1.65-1.61-2.01-.22-.1-.46-.17-.7-.12-.36.08-.61.41-.81.72-.58.89-1.11,1.82-1.58,2.77-.16-2.03-.48-4.06-1.56-5.71-1.29-1.97-3.58-3.16-5.91-3.5-2.34-.33-4.73.11-6.96.87-2.54.87-4.94,2.14-7.07,3.77-.55.42-1.09.87-1.51,1.41-1.03,1.34-1.27,3.18-.89,4.83.38,1.65,1.31,3.13,2.41,4.41-.92.5-1.82,1.58-2.46,2.72-.18.32-.38.68-.73.8-.15.05-.32.04-.47.08-.57.14-.81.83-.8,1.41,0,.21.03.44-.05.64-.13.31-.48.45-.76.64-.61.42-.94,1.19-.89,1.93.05.74.43,1.43.98,1.93-2.22,1.77-3.12,4.8-3.79,7.65C1.31,52.23.44,57.89,0,63.58ZM60.56,42.34c-.49-.83-.76-1.79-.76-2.75,0-.05,0-.11.04-.14.08-.08.21.02.27.11.25.4.38.88.42,1.35.05.47.02.95.03,1.43ZM57.32,82.02c1.2-.59,2.23-1.56,2.85-2.72.63-1.16.87-2.5.86-3.82,0-.53-.05-1.07-.27-1.55-.18-.4-.47-.74-.76-1.07-.74-.84-1.49-1.67-2.26-2.49,2.92,1.33,5.31,3.56,7.65,5.75.27-.07.98-2.57.98-2.57-1.02-1.06-2.12-2.04-3.28-2.93,2.26.33,4.26,1.52,6.44,2.07,1.58.4,3.22.45,4.85.4.83-.03,1.73-.1,2.37-.64.44-.36.77-.94,1.34-1,.25-.03.5.06.74.14.96.32,1.96.54,2.97.64l-.42,9.03.33.03-.69,11.71c-.17.08-.33.18-.45.33-.12.14-.21.33-.13.5.03.05.07.09.11.13.12.1.25.18.39.24l-1.73,29.48c-.19.06-.37.15-.53.28-.26.2-.47.49-.49.82-.02.33.18.67.51.69l-.02,1.9.32.03-1.74,29.6c-.25.05-.5.09-.75.11-2.16.21-4.26-.63-6.26-1.45-.94-.39-2.03-.96-2.14-1.97-.06-.55.2-1.09.16-1.64-.05-.73-.62-1.34-.73-2.06-.16-1.05.65-1.96,1.1-2.91.34-.72.49-1.55.27-2.31-.22-.76-.96-1.5-1.75-1.6,1.15.15,2.44-.05,3.32-.8.14-.12.26-.26.35-.42.42-.75.15-1.69-.24-2.45-.39-.76-.91-1.5-.99-2.35-.08-.85.29-1.67.47-2.51.2-.94.15-1.92.45-2.83.24-.76.71-1.43,1.2-2.05.45-.57.95-1.13,1.17-1.83.11-.35.14-.72.17-1.08.24-2.79.38-5.6.41-8.4.02-1.63,0-3.39-.29-5.12-.29-1.73-.87-3.43-1.92-4.84-.81-1.08-1.89-2-2.37-3.27-.39-1.03-.36-2.27-1.12-3.07-.22-.23-.5-.41-.72-.64-.51-.54-.68-1.3-.89-2.01-.6-2.06-1.63-3.96-2.65-5.84-.07-.36.03-.57.21-.55.19.01.25.27.4.38.25.2.65-.1.65-.42,0-.32-.22-.6-.44-.83-.68-.73-1.43-1.4-2.01-2.21-.68-.95-1.13-2.1-2-2.88-.45-.4-1-.7-1.4-1.16-.41-.48-.63-1.09-.83-1.69-.25-.75-.51-1.5-.77-2.26ZM53.36,73.92c.03-.42.06-.85.25-1.22.19-.37.58-.68,1-.63.33.04.6.28.85.51,1.44,1.34,2.88,2.69,4.1,4.23.1.13.21.27.23.44.04.38-.35.64-.7.79-1.08.47-2.23.79-3.23,1.2-.31-1.51-1.03-2.94-2.08-4.08-.12-.14-.26-.27-.33-.44-.11-.24-.1-.53-.08-.8ZM34.36,22.02c.09-.34.21-.67.35-.99.1-.22.21-.45.39-.61.18-.16.44-.26.67-.17.2.07.34.27.44.46.14.27.23.57.28.84-.73.03-1.43.26-2.13.48Z"/>
  </g>
</svg>