<?xml version="1.0" encoding="UTF-8"?>
<svg id="Capa_2" data-name="Capa 2" xmlns="http://www.w3.org/2000/svg" viewBox="0 0 132.76 132.76">
  <defs>
    <style>
      .cls-1 {
        fill: #f6b233;
      }

      .cls-1, .cls-2, .cls-3, .cls-4, .cls-5 {
        stroke-width: 0px;
      }

      .cls-2 {
        fill: #fff3e1;
      }

      .cls-3 {
        fill: #2f272a;
      }

      .cls-4 {
        fill: #1dbdbb;
      }

      .cls-5 {
        fill: #cf5533;
      }
    </style>
  </defs>
  <g id="OBJECTS">
    <g>
      <circle class="cls-5" cx="66.38" cy="66.38" r="66.38" transform="translate(-13.32 115.98) rotate(-76.9)"/>
      <circle class="cls-3" cx="66.38" cy="66.38" r="63.04" transform="translate(-14.59 113.88) rotate(-75.4)"/>
      <circle class="cls-4" cx="66.38" cy="66.38" r="61.99" transform="translate(-13.38 115.89) rotate(-76.83)"/>
      <circle class="cls-2" cx="66.38" cy="66.38" r="59.84" transform="translate(-9.69 121.38) rotate(-80.87)"/>
      <circle class="cls-1" cx="66.38" cy="66.38" r="51.95" transform="translate(-13.33 115.96) rotate(-76.88)"/>
      <path class="cls-1" d="M118.33,66.37c0,3.12-.27,6.17-.8,9.13l-.13.67c-.2,1.07-.43,2.12-.7,3.16-.22.85-.46,1.7-.72,2.53l-.1.32c-.49,1.52-1.03,3.01-1.66,4.47v.02c-.31.72-.63,1.43-.97,2.14l-2.03,3.8h0c-.27.47-.54.93-.83,1.38-3.62,5.76-8.35,10.76-13.87,14.7-2.38,1.7-4.92,3.21-7.58,4.49h0c-.16.08-.31.16-.48.23-3.57,1.68-7.35,2.96-11.31,3.8h0c-3.47.73-7.07,1.11-10.76,1.11-.61,0-1.22-.01-1.83-.03-17.74-.61-33.22-10.12-42.12-24.2-.18-.28-.36-.57-.53-.85-1.86-3.05-3.4-6.32-4.59-9.75-1.87-5.36-2.89-11.12-2.89-17.12,0-28.69,23.26-51.95,51.95-51.95s51.95,23.25,51.95,51.95Z"/>
      <path class="cls-5" d="M117.53,75.51l-.13.67c-.2,1.07-.43,2.12-.7,3.16-.22.85-.46,1.7-.72,2.53l-.1.32c-.49,1.52-1.03,3.01-1.66,4.47v.02c-.31.72-.63,1.43-.97,2.14l-2.03,3.8h0c-.27.47-.54.93-.83,1.38-3.62,5.76-8.35,10.76-13.87,14.7-2.38,1.7-4.92,3.21-7.58,4.49h0c-.16.08-.31.16-.48.23-3.57,1.68-7.35,2.96-11.31,3.8h0l-24.74-8.43-.5-.17c-4.28-1.46-4.12-7.57.24-8.8h0s7.67-2.16,7.67-2.16l.08-.02,9.52-2.67c.49-.14.96-.36,1.38-.65l3.98-2.18,5.17-3.56c.32-.22,1.44-.85,1.8-.98l13.64-5.46c.51-.19,1.06-.29,1.6-.29h9.03c.86,0,1.7-.24,2.43-.69l9.1-5.64Z"/>
      <path class="cls-3" d="M111.22,92.62c-.27.46-.54.92-.83,1.37-3.62,5.76-8.35,10.76-13.87,14.7-2.38,1.7-4.92,3.21-7.58,4.49h0l-1.13-.34-11.55-3.52h-.01l-15.92-4.85,13.61-2.77h5.47l4.07-.74,1.48-.23,1.79-.28h.09s2.16-.36,2.16-.36l.18-.03,3.72-.59.3-.12,15.47-5.85,1.09-.41,1.47-.49Z"/>
      <path class="cls-4" d="M96.52,108.7c-2.38,1.7-4.92,3.21-7.58,4.49h0c-.16.08-.31.16-.48.23-3.57,1.68-7.35,2.96-11.31,3.8h0c-3.47.73-7.07,1.11-10.76,1.11-.61,0-1.22-.01-1.83-.03l-12.03-4.58-.12-4.93-.23-8.88.12.07,8.02,4.5,27.69,1.17,8.52,3.05Z"/>
      <path class="cls-3" d="M22.43,94.1c8.89,14.08,24.37,23.58,42.12,24.2.61.02,1.22.03,1.83.03,3.69,0,7.29-.38,10.76-1.11h0c3.96-.83,7.74-2.12,11.31-3.8l-.65-.57-2.83-2.53-8.72-.99h-.01l-16.5-1.88-7.44-7.47-.16-.16-3.46-3.47-4.08-.74-5.19-.94-.27-.05-4.43-.81-.98-.58-2.25-1.33-8.1-4.8-6.07-3.59c1.19,3.43,2.73,6.69,4.59,9.75l.53.85Z"/>
      <polygon class="cls-3" points="36.1 87.98 34.88 88.64 35.87 87.13 34.14 80.81 33.3 84.31 34.14 85.81 33.1 85.16 30.06 97.79 38.81 97.88 36.1 87.98"/>
      <polygon class="cls-3" points="40 92.33 39.13 92.8 39.84 91.72 38.6 87.21 38 89.71 38.6 90.77 37.86 90.31 35.69 99.33 41.94 99.4 40 92.33"/>
      <polygon class="cls-3" points="44.16 91.65 43.29 92.12 44 91.04 42.76 86.53 42.16 89.03 42.76 90.09 42.02 89.63 39.85 98.65 46.1 98.72 44.16 91.65"/>
      <path class="cls-3" d="M113.25,88.82l-2.03,3.8h0c-.27.47-.54.93-.83,1.38l-1.84-.02.11-.46,2.02-8.39.73.45-.59-1.05.59-2.45,1.22,4.43-.7,1.06.85-.46.47,1.71Z"/>
      <polygon class="cls-3" points="92.06 95.26 91.43 95.61 91.94 94.82 91.04 91.54 90.6 93.36 91.04 94.13 90.5 93.8 88.92 100.36 93.47 100.41 92.06 95.26"/>
      <path class="cls-3" d="M115.88,82.19c-.49,1.52-1.03,3.01-1.66,4.47l1.15-4.78.51.31Z"/>
      <path class="cls-3" d="M115.98,81.87l-.43-.77.77-3.19.39,1.42c-.22.85-.46,1.7-.72,2.53Z"/>
      <polygon class="cls-3" points="88.57 97.89 88.19 98.09 88.5 97.63 87.96 95.68 87.7 96.76 87.96 97.22 87.64 97.02 86.71 100.91 89.4 100.94 88.57 97.89"/>
      <polygon class="cls-3" points="85.33 99.32 85.71 99.53 85.4 99.06 85.94 97.11 86.2 98.19 85.94 98.65 86.26 98.45 87.19 102.34 84.5 102.37 85.33 99.32"/>
      <polygon class="cls-3" points="23.9 93.81 30.73 93.88 33.2 93.91 32.98 93.11 31.88 89.09 31.88 89.09 30.14 82.72 28.76 83.46 29.88 81.76 27.92 74.62 26.97 78.57 27.92 80.26 26.74 79.53 24.67 88.18 23.48 93.13 23.9 93.81"/>
      <path class="cls-2" d="M59.73,97.67l17.49-3.69c.34-.07.65-.21.93-.42l5.68-5.41c1.23-1.14,2.02-1.45,3.04-1.64,1.46-.2,2.08-.42,2.53-.57.63-.18.95-.35,1.28-.6,0,0,2.19-1.99,5.13-3.36-.5.01-9.05,2.97-14.65,5.34-.42.15-1.58.73-1.95.99,0,0-8.25,6.08-19.48,9.34Z"/>
      <path class="cls-2" d="M117.53,75.51l-10.12,6.11,3.77-.45c.36-.04.7-.18.98-.4l3.2-2.48c.1-.07.19-.16.27-.24l1.77-1.87.13-.67Z"/>
      <g>
        <path class="cls-2" d="M33.83,60.9c-.42,2.87-2.25,4.87-4.87,4.53l.43-2.97c1.12.08,1.96-.54,2.15-1.83.19-1.31-.39-2.18-1.38-2.32-2.99-.44-2.23,6.95-7.23,6.2-2.49-.36-3.7-2.6-3.29-5.45.41-2.83,2.14-4.56,4.66-4.37l-.44,3.05c-.92-.07-1.74.55-1.93,1.74-.2,1.08.22,1.97,1.35,2.14,2.77.4,2.26-6.91,7.13-6.2,2.18.32,3.88,2.35,3.42,5.49Z"/>
        <path class="cls-2" d="M37.58,44.34l-2.93,4.73,1.78,2.19-1.55,2.5-9.24-11.64,1.72-2.77,14.53,3.11-1.56,2.52-2.75-.62ZM29.24,42.44l3.9,4.8,2.13-3.43-6.03-1.36Z"/>
        <path class="cls-2" d="M46.29,22.56l7.54,11.78-2.36,1.51-10.51-4.65,5.17,8.07-2.36,1.51-7.54-11.78,2.36-1.51,10.52,4.67-5.18-8.09,2.36-1.51Z"/>
        <path class="cls-2" d="M68.76,22.04l-3.2.35c-.76-1.1-1.98-1.59-3.46-1.43-2.49.27-4.02,2.23-3.72,4.99.31,2.82,2.25,4.38,4.83,4.1,2.15-.23,3.39-1.62,3.59-3.63l-4.77.52-.23-2.13,7.52-.82.26,2.43c-.25,2.88-2.49,5.74-6.19,6.15-4.04.44-7.42-2.15-7.87-6.31-.45-4.16,2.29-7.43,6.31-7.87,3.1-.34,5.74.97,6.94,3.65Z"/>
        <path class="cls-2" d="M77.41,19.15l2.64.93-2.88,8.15c-.64,1.81,0,3.1,1.69,3.69,1.7.6,3.01,0,3.65-1.81l2.88-8.15,2.66.94-2.87,8.13c-1.23,3.47-4.32,4.29-7.2,3.27-2.89-1.02-4.66-3.56-3.44-7.03l2.87-8.13Z"/>
        <path class="cls-2" d="M89.65,41.38c-2.13-1.97-2.74-4.61-.97-6.58l2.2,2.04c-.7.87-.66,1.92.29,2.81.97.9,2.02.91,2.7.18,2.05-2.21-4.47-5.78-1.01-9.48,1.71-1.85,4.25-1.58,6.36.38,2.1,1.95,2.54,4.35.96,6.32l-2.26-2.1c.58-.72.53-1.75-.34-2.58-.78-.78-1.75-.94-2.52-.1-1.9,2.05,4.41,5.78,1.06,9.39-1.5,1.61-4.13,1.87-6.47-.29Z"/>
        <path class="cls-2" d="M107.12,40.55l1.42,2.41-12.04,7.08-1.42-2.41,12.04-7.08Z"/>
        <path class="cls-2" d="M114.63,62.05l-13.7,2.82-.57-2.74,8.1-8.15-9.39,1.94-.57-2.74,13.7-2.82.57,2.74-8.12,8.15,9.41-1.94.57,2.74Z"/>
      </g>
      <path class="cls-2" d="M55.56,80.06c-.26-.81-1.01-1.4-1.91-1.4-.27,0-.53.06-.76.15-.28-1.53-1.62-2.7-3.23-2.7-.38,0-.73.08-1.07.19-.55-2.27-2.59-3.97-5.03-3.97s-4.61,1.8-5.08,4.17c-.46-.25-.98-.4-1.55-.4-1.82,0-3.29,1.47-3.29,3.29,0,.23.02.45.07.66h21.85Z"/>
      <path class="cls-2" d="M101.84,78.58c-.16-.5-.62-.86-1.18-.86-.17,0-.32.03-.47.09-.17-.94-1-1.66-1.99-1.66-.23,0-.45.05-.66.12-.34-1.4-1.59-2.44-3.1-2.44s-2.84,1.11-3.13,2.57c-.29-.15-.61-.25-.95-.25-1.12,0-2.03.91-2.03,2.03,0,.14.01.27.04.4h13.45Z"/>
      <g>
        <path class="cls-5" d="M37.16,63.55c.08-1.09.74-1.6,1.52-1.54.56.04,1.07.38,1.22,1.08l1.84-.91-.09,1.23-1.75.81-.02.26,1.69.12-.08,1.09-4.46-.31.13-1.83ZM38.06,63.68l-.05.67,1.11.08.05-.67c.03-.41-.17-.61-.52-.64-.33-.02-.56.15-.59.56Z"/>
        <path class="cls-5" d="M37.73,59.28l.3-1.05,2.58.75c.51.15.88-.02,1.02-.51s-.07-.85-.58-.99l-2.57-.75.3-1.05,2.57.75c1.19.34,1.54,1.35,1.25,2.34-.29,1-1.1,1.61-2.29,1.26l-2.57-.75Z"/>
        <path class="cls-5" d="M39.73,53.37l1.63-3.06.77.41-.56,1.05,3.18,1.69-.51.96-3.19-1.69-.56,1.05-.77-.41Z"/>
        <path class="cls-5" d="M47.38,48.42l-1.07,1.28.43.71-.73.88-2.39-4.12.81-.97,4.47,1.63-.74.89-.78-.3ZM44.94,47.47l.91,1.47.71-.85-1.61-.63Z"/>
        <path class="cls-5" d="M51.38,45.84c-.76.59-1.65.68-2.23-.02l.91-.71c.24.25.51.25.75.06.25-.2.31-.45.15-.65-.51-.65-2,1.08-2.97-.19-.52-.67-.26-1.47.48-2.05.77-.6,1.59-.62,2.15.02l-.93.73c-.19-.21-.46-.22-.69-.05-.21.16-.28.38-.11.6.48.61,2.01-1.02,2.93.16.46.59.38,1.45-.44,2.09Z"/>
        <path class="cls-5" d="M53.98,42.39c-.34.19-.7.09-.85-.2-.16-.3-.06-.65.28-.84.33-.18.69-.08.85.21.16.28.06.64-.28.82Z"/>
        <path class="cls-5" d="M58.37,42.01c-.91.32-1.78.13-2.11-.71l1.09-.39c.15.31.41.4.69.29.3-.11.44-.33.35-.57-.28-.78-2.24.39-2.76-1.11-.28-.8.21-1.48,1.09-1.79.92-.33,1.7-.09,2.03.7l-1.11.4c-.11-.26-.36-.36-.64-.26-.25.08-.39.27-.29.54.26.73,2.23-.34,2.73,1.07.25.71-.09,1.49-1.07,1.85Z"/>
        <path class="cls-5" d="M63.73,37.03l-1.63.26.14.89,1.44-.23.13.83-1.44.23.15.97,1.63-.26.14.86-2.71.43-.7-4.42,2.71-.43.14.86Z"/>
        <path class="cls-5" d="M70.28,36.15l-.21,4.47-1.09-.05-1.69-2.84-.13,2.76-1.09-.05.21-4.47,1.09.05,1.69,2.86.13-2.77,1.09.05Z"/>
        <path class="cls-5" d="M76.34,39.85c-.36,1.28-1.49,1.91-2.86,1.52l-1.62-.45,1.21-4.31,1.62.45c1.38.39,2.02,1.51,1.66,2.79ZM73.67,40.44c.79.22,1.39-.1,1.61-.89.22-.79-.11-1.39-.91-1.61l-.5-.14-.7,2.51.5.14Z"/>
        <path class="cls-5" d="M81.38,40.75l-1.47-.76-.42.81,1.3.67-.39.75-1.3-.67-.45.87,1.47.76-.4.78-2.44-1.26,2.05-3.98,2.44,1.26-.4.78Z"/>
        <path class="cls-5" d="M85.44,42.52c.86.68.9,1.52.42,2.12-.35.44-.92.67-1.58.4l-.29,2.03-.96-.76.32-1.9-.2-.16-1.05,1.32-.85-.68,2.78-3.51,1.43,1.13ZM84.83,43.19l-.53-.42-.69.87.53.42c.32.25.6.21.82-.07.21-.26.19-.55-.13-.8Z"/>
        <path class="cls-5" d="M88.5,45.32l.74.8-3.3,3.02-.74-.8,3.3-3.02Z"/>
        <path class="cls-5" d="M88.01,51.96c-.53-.8-.54-1.7.19-2.22l.64.97c-.27.22-.29.49-.12.74.18.27.42.35.64.2.69-.46-.91-2.08.42-2.94.71-.47,1.49-.15,2,.64.54.82.49,1.63-.2,2.14l-.65-.99c.23-.17.26-.44.11-.69-.14-.22-.36-.31-.59-.16-.65.43.86,2.08-.39,2.91-.63.41-1.47.27-2.05-.61Z"/>
        <path class="cls-5" d="M94.01,53.26l.44,1.21-2.49,2.24,3.34.11.44,1.21-4.21,1.52-.37-1.03,2.53-.91-2.87-.03-.3-.83,2.19-1.86-2.53.92-.37-1.03,4.21-1.52Z"/>
        <path class="cls-5" d="M92.03,63.42c-.12-1.26.73-2.38,2.07-2.51,1.34-.13,2.38.81,2.5,2.08.12,1.27-.72,2.37-2.06,2.49-1.34.13-2.38-.8-2.5-2.06ZM93.02,63.33c.07.71.63,1.13,1.41,1.05.79-.08,1.25-.59,1.18-1.3-.07-.72-.61-1.13-1.41-1.06-.78.07-1.25.58-1.18,1.3Z"/>
      </g>
    </g>
  </g>
</svg>